<?xml version="1.0" encoding="UTF-8" standalone="no"?>
<!-- Created with Inkscape (http://www.inkscape.org/) -->

<svg
   width="210mm"
   height="297mm"
   viewBox="0 0 210 297"
   version="1.1"
   id="svg1"
   inkscape:version="1.3.2 (091e20e, 2023-11-25, custom)"
   sodipodi:docname="Degreez_logo.svg"
   xmlns:inkscape="http://www.inkscape.org/namespaces/inkscape"
   xmlns:sodipodi="http://sodipodi.sourceforge.net/DTD/sodipodi-0.dtd"
   xmlns="http://www.w3.org/2000/svg"
   xmlns:svg="http://www.w3.org/2000/svg">
  <sodipodi:namedview
     id="namedview1"
     pagecolor="#ffffff"
     bordercolor="#000000"
     borderopacity="0.25"
     inkscape:showpageshadow="2"
     inkscape:pageopacity="0.0"
     inkscape:pagecheckerboard="0"
     inkscape:deskcolor="#d1d1d1"
     inkscape:document-units="mm"
     inkscape:zoom="0.71713664"
     inkscape:cx="397.4138"
     inkscape:cy="559.86541"
     inkscape:window-width="1105"
     inkscape:window-height="1001"
     inkscape:window-x="-4"
     inkscape:window-y="22"
     inkscape:window-maximized="0"
     inkscape:current-layer="layer1" />
  <defs
     id="defs1" />
  <g
     inkscape:label="Slānis 1"
     inkscape:groupmode="layer"
     id="layer1">
    <g
       id="g6">
      <path
         id="rect1"
         style="fill:#32603e;fill-opacity:1;stroke:none;stroke-width:0.144943"
         d="m 64.56521,115.11062 v 77.10943 h 79.69208 v -77.10943 z m 2.927439,4.52104 h 73.837211 v 67.81617 H 67.492649 Z" />
      <g
         id="g5"
         transform="matrix(1,0,0,0.8862676,0.3689441,16.985075)">
        <text
           xml:space="preserve"
           style="font-style:normal;font-variant:normal;font-weight:normal;font-stretch:normal;font-size:80.354px;font-family:'Tw Cen MT Condensed';-inkscape-font-specification:'Tw Cen MT Condensed, ';fill:#32603e;fill-opacity:1;stroke:none;stroke-width:6.69616;stroke-opacity:0.570796"
           x="59.253395"
           y="233.32394"
           id="text3"
           transform="matrix(1.3477128,-0.0012999,0.00119603,0.74199671,0,0)"><tspan
             sodipodi:role="line"
             id="tspan3"
             style="font-style:normal;font-variant:normal;font-weight:normal;font-stretch:normal;font-family:'Tw Cen MT Condensed';-inkscape-font-specification:'Tw Cen MT Condensed, ';fill:#32603e;fill-opacity:1;stroke-width:6.69616"
             x="59.253395"
             y="233.32394">D</tspan></text>
        <path
           id="path3"
           style="fill:#32603e;fill-opacity:1;stroke:none;stroke-width:0.264583;stroke-opacity:0.570796"
           d="m 132.41864,146.50579 a 15.126708,21.952175 8.0167966 0 0 -11.91738,-23.84724 15.126708,21.952175 8.0167966 0 0 -3.28711,0.0845 c -0.18014,-1.2447 -0.46744,-2.61282 -1.03661,-2.59615 -0.95673,0.028 -4.75216,4.03279 -5.52579,4.68932 -0.77362,0.65653 -5.70896,4.06132 -5.52585,4.68984 0.1831,0.62851 5.8771,-0.17222 6.83383,-0.20024 0.95673,-0.028 6.06021,0.45629 6.83384,-0.20024 0.45507,-0.38619 -0.0161,-1.65028 -0.51717,-2.75679 a 18.816151,26.010559 8.0167966 0 1 10.92097,27.13504 18.816151,26.010559 8.0167966 0 1 -0.98253,4.6826 15.126708,21.952175 8.0167966 0 0 4.2038,-11.68062 z" />
        <path
           id="path5"
           style="fill:#32603e;fill-opacity:1;stroke:none;stroke-width:0.264583;stroke-opacity:0.570796"
           d="m 74.731871,165.62672 a 21.952175,15.126708 86.632273 0 0 16.390168,21.02563 21.952175,15.126708 86.632273 0 0 3.205755,-0.73169 c 0.42229,1.18466 0.973994,2.46915 1.528674,2.34045 0.932379,-0.2163 3.862617,-4.89148 4.491432,-5.6878 0.6288,-0.79632 4.79495,-5.10832 4.49138,-5.68833 -0.30356,-0.58 -5.727464,1.32893 -6.659839,1.54525 -0.932379,0.2163 -6.031041,0.74893 -6.659855,1.54525 -0.369886,0.46842 0.341536,1.61463 1.051164,2.60046 a 26.010559,18.816151 86.632273 0 1 -16.06235,-24.44542 26.010559,18.816151 86.632273 0 1 0.03889,-4.78442 21.952175,15.126708 86.632273 0 0 -1.815421,12.2806 z" />
      </g>
      <text
         xml:space="preserve"
         style="font-style:normal;font-variant:normal;font-weight:normal;font-stretch:normal;font-size:17.9467px;font-family:'Tw Cen MT Condensed';-inkscape-font-specification:'Tw Cen MT Condensed, ';fill:#32603e;fill-opacity:1;stroke:none;stroke-width:1.49556;stroke-opacity:0.570796"
         x="56.393108"
         y="271.28043"
         id="text5"
         transform="scale(1.3210931,0.75694893)"><tspan
           sodipodi:role="line"
           id="tspan5"
           style="stroke-width:1.49556"
           x="56.393108"
           y="271.28043">DEGREEZ</tspan></text>
    </g>
  </g>
</svg>
